<svg version="1.1" id="Layer_1" xmlns="http://www.w3.org/2000/svg" xmlns:xlink="http://www.w3.org/1999/xlink" x="0px" y="0px"
	 width="100%" viewBox="0 0 2048 2048" enable-background="new 0 0 2048 2048" xml:space="preserve">

<path fill="#730D0D" opacity="1.000000" stroke="none" 
	d="
M1111.004395,1597.184082 
	C1110.556763,1597.144165 1110.109253,1597.104248 1108.867554,1597.037842 
	C945.542358,1597.003052 783.011169,1596.993652 620.480042,1596.994507 
	C617.321472,1596.994507 614.162903,1597.116699 611.004333,1597.181763 
	C608.628967,1597.141968 606.253662,1597.102051 602.975708,1597.037598 
	C584.029114,1596.797241 565.966431,1597.811523 548.124573,1593.456665 
	C493.402588,1580.099731 455.160492,1532.005127 454.842712,1475.567749 
	C454.738586,1457.074341 454.836304,1438.579834 454.823700,1420.085815 
	C454.718353,1265.489746 454.549774,1110.893555 454.520996,956.297485 
	C454.501221,850.164673 454.690277,744.031860 454.748016,637.899048 
	C454.760864,614.247437 454.614349,590.595642 454.541168,566.943970 
	C454.617340,566.522827 454.693481,566.101624 454.865601,564.968445 
	C457.746918,552.888550 460.532318,541.520691 463.317749,530.152832 
	C472.091461,509.452728 485.242401,492.030304 503.112488,478.417145 
	C522.087524,463.962219 543.466614,454.449646 567.455994,454.088165 
	C627.534607,453.182983 687.627991,453.021088 747.715637,452.997162 
	C988.815979,452.901276 1229.916382,452.886719 1471.016479,453.072601 
	C1506.287354,453.099792 1536.601440,465.890808 1561.258423,491.523163 
	C1574.658081,505.452789 1584.224854,521.547852 1589.744629,540.063354 
	C1589.979370,540.850403 1590.403198,541.581055 1590.839355,543.082458 
	C1591.587402,547.883850 1592.234985,551.940796 1592.568848,555.998657 
	C1591.836792,555.998962 1591.418457,555.998230 1590.995850,555.643433 
	C1590.329346,552.859253 1589.667114,550.429199 1588.997681,547.613281 
	C1586.696411,541.078735 1584.524780,534.879333 1582.013428,528.820801 
	C1581.454712,527.472778 1579.699585,526.620667 1578.495361,525.540222 
	C1578.111694,525.912109 1577.728149,526.283936 1577.344482,526.655823 
	C1577.930420,529.017212 1578.412964,531.410278 1579.123535,533.733521 
	C1580.686646,538.844727 1582.365112,543.920654 1583.991455,549.363586 
	C1583.751587,550.301453 1583.516846,550.886658 1583.282104,551.471924 
	C1582.587158,550.680054 1581.546021,549.993408 1581.266724,549.075073 
	C1580.610962,546.918335 1580.511963,544.590759 1579.840332,542.440796 
	C1578.489624,538.116394 1572.167236,535.943604 1574.416626,529.982910 
	C1574.530518,529.680969 1574.015503,529.105347 1573.735352,528.696838 
	C1570.832031,524.461487 1567.916870,520.234314 1565.317627,515.966553 
	C1566.400391,515.262634 1567.170532,514.597046 1568.298462,514.007324 
	C1570.830933,517.747314 1573.005615,521.411499 1575.180176,525.075623 
	C1575.665283,524.987122 1576.150391,524.898621 1576.635498,524.810120 
	C1576.635498,522.040588 1577.588013,518.764160 1576.439453,516.605957 
	C1573.966675,511.959625 1570.058350,508.093964 1567.408691,503.520050 
	C1565.115234,499.560974 1560.666382,497.925293 1558.349487,494.769012 
	C1553.235474,487.801697 1546.144043,483.282959 1540.026855,477.609772 
	C1538.601685,476.287903 1535.860352,476.385071 1533.724609,475.829346 
	C1533.460205,476.349609 1533.195801,476.869843 1532.931396,477.390106 
	C1536.843018,480.237030 1541.554443,482.468384 1541.655518,487.957367 
	C1538.820068,487.272858 1536.324219,486.617584 1533.078247,485.765381 
	C1533.046509,485.339783 1532.914551,483.574829 1532.780884,481.785675 
	C1529.460083,480.384613 1525.647217,479.740906 1523.212646,477.559265 
	C1517.079956,472.063782 1510.634399,468.784210 1502.243408,470.914581 
	C1501.482910,471.107635 1500.630981,470.940216 1500.140869,470.940216 
	C1496.043701,460.533813 1486.660645,467.424225 1479.424561,463.676117 
	C1481.839233,462.127960 1483.702515,460.933319 1485.565796,459.738678 
	C1480.561768,458.417358 1475.597534,458.032196 1470.633057,458.027161 
	C1424.528687,457.980438 1378.424316,457.988098 1332.319946,458.027740 
	C1329.701050,458.029999 1327.076050,458.701447 1324.464844,458.634033 
	C1305.888672,458.154449 1287.318115,457.387421 1268.739868,457.087250 
	C1260.297852,456.950806 1251.844727,457.785583 1243.392090,457.965637 
	C1235.076294,458.142731 1226.748413,457.900116 1218.442261,458.239502 
	C1217.248169,458.288269 1216.145386,460.568604 1214.535522,461.880127 
	C1212.405029,461.959106 1210.739380,461.987213 1209.073853,461.987244 
	C1037.684814,461.989777 866.295715,461.998779 694.906616,461.984253 
	C655.601440,461.980927 616.296204,461.896210 577.069946,461.511108 
	C578.279236,460.475128 579.409607,459.776947 580.540039,459.078766 
	C580.442810,458.693146 580.345581,458.307556 580.248413,457.921936 
	C577.346985,458.277527 574.445618,458.633118 571.377380,459.009155 
	C571.883179,460.653076 572.178833,461.614014 572.573486,462.896729 
	C566.091431,463.981689 559.973633,464.677673 554.044434,466.138824 
	C551.150757,466.851898 548.722534,469.944427 545.883301,470.283813 
	C540.210083,470.962006 534.398804,470.484985 530.579956,470.484985 
	C527.227234,473.997925 524.866699,476.502258 522.465454,478.966888 
	C521.811523,479.638062 520.359131,480.264343 520.416626,480.785065 
	C521.214722,488.016418 517.406250,482.319427 515.268127,482.280060 
	C510.251007,486.586456 504.941345,490.877838 499.948364,495.510468 
	C495.638885,499.508881 491.137024,503.506714 487.792389,508.259308 
	C485.841583,511.031219 485.997192,515.285461 485.248962,518.674072 
	C477.437561,516.855713 478.665222,525.397583 474.908844,528.667908 
	C473.598419,527.903442 472.182678,527.077637 470.342438,526.004150 
	C471.229034,529.052002 472.879944,531.609924 472.432159,533.723145 
	C470.400574,543.311035 467.790894,552.777161 465.342651,562.275024 
	C465.130188,563.099304 464.578033,563.835999 464.183685,564.613342 
	C463.260101,562.820007 463.352783,561.296326 463.642303,559.811035 
	C464.333130,556.266663 465.368195,552.767273 465.749908,549.194763 
	C465.923492,547.570374 464.878296,545.815674 464.385956,544.120117 
	C463.562256,545.587891 462.525452,546.978455 461.959778,548.539734 
	C460.832672,551.650635 459.937561,554.847351 459.002686,558.025208 
	C458.635986,559.271790 458.146698,560.569824 458.179932,561.832153 
	C458.374298,569.210144 458.986694,576.586792 458.929138,583.959717 
	C458.837769,595.670471 458.062805,607.377502 458.043732,619.086853 
	C457.946106,678.984924 457.998016,738.883118 457.997528,798.781311 
	C457.997406,814.690857 458.100250,830.601257 457.975189,846.509827 
	C457.715546,879.538208 457.350464,912.565857 456.999481,945.593445 
	C456.688965,974.816528 456.303009,1004.038818 456.041931,1033.262329 
	C455.999268,1038.036499 456.490356,1042.813110 456.622589,1047.591797 
	C456.722321,1051.196289 456.602051,1054.806152 456.656281,1058.412476 
	C456.698700,1061.232666 457.031555,1064.057495 456.929199,1066.869019 
	C456.738617,1072.103638 456.017578,1077.332886 456.068329,1082.559204 
	C456.173950,1093.429443 456.874695,1104.296021 456.887115,1115.164551 
	C456.898438,1125.060791 456.060272,1134.957886 456.071411,1144.854126 
	C456.085876,1157.732788 456.762054,1170.610474 456.789734,1183.489258 
	C456.811737,1193.719238 456.014465,1203.951416 456.059021,1214.180542 
	C456.170959,1239.890259 456.659821,1265.598267 456.775024,1291.307983 
	C456.820740,1301.511353 456.154541,1311.715820 456.036011,1321.922485 
	C455.897644,1333.840088 456.002167,1345.760498 456.003998,1357.679688 
	C456.006622,1374.794312 456.358276,1391.873291 457.776764,1408.964844 
	C458.473022,1417.354004 456.701050,1425.925049 456.416809,1434.426147 
	C456.204102,1440.787476 456.379761,1447.180664 456.751831,1453.538086 
	C457.234192,1461.779785 458.779236,1470.017456 458.571167,1478.224243 
	C458.378510,1485.824585 456.648804,1493.304077 461.423889,1500.243042 
	C462.663574,1502.044434 464.004120,1504.593506 463.663910,1506.508911 
	C462.716431,1511.842651 464.620331,1515.000366 469.614777,1516.470703 
	C466.673126,1522.366699 469.834869,1529.711792 475.618927,1530.808105 
	C476.255432,1530.928711 477.154846,1529.661987 477.980774,1529.002686 
	C478.029236,1528.966675 478.119263,1528.886108 478.400452,1529.078857 
	C480.266174,1531.322632 481.942444,1533.309937 483.416901,1535.437134 
	C486.976654,1540.573120 490.442139,1545.774292 493.579254,1550.928467 
	C490.808167,1550.271851 488.403473,1549.635864 486.125122,1548.696533 
	C485.501343,1547.595581 484.751282,1546.797729 484.001892,1545.610962 
	C483.852203,1543.948120 483.701843,1542.674438 483.551453,1541.400635 
	C483.035339,1541.545410 482.519196,1541.690308 482.003082,1541.835083 
	C482.668304,1543.223389 483.333557,1544.611694 484.004272,1546.354004 
	C484.673187,1547.472046 485.336609,1548.236084 486.000336,1549.395752 
	C486.978607,1555.117676 489.962860,1556.084473 496.277100,1553.150879 
	C499.570343,1555.387817 503.284119,1556.958252 505.321655,1559.751465 
	C507.301392,1562.465332 513.036621,1561.655518 511.582336,1567.019653 
	C511.087952,1568.339966 510.937897,1569.568359 510.787842,1570.796631 
	C511.369568,1570.734131 511.951294,1570.671631 512.533020,1570.609253 
	C512.392273,1569.435669 512.251465,1568.262207 512.467041,1567.104004 
	C515.970337,1569.151489 520.836243,1569.255615 520.774170,1574.587402 
	C519.989929,1575.070068 518.922058,1575.727295 518.186401,1576.180054 
	C520.549622,1578.125732 522.222656,1580.297363 524.392334,1581.064819 
	C526.532166,1581.821655 527.119629,1585.291504 530.927551,1583.820190 
	C532.886108,1583.063477 536.193848,1586.290161 539.048096,1587.254639 
	C544.388672,1589.059082 549.210205,1593.549194 555.563049,1590.717529 
	C556.233521,1590.418579 557.398499,1590.285767 557.883606,1590.659912 
	C562.747375,1594.412231 568.530457,1593.918701 574.026001,1593.930908 
	C626.684448,1594.048218 679.343384,1594.003296 732.271729,1594.290283 
	C734.691101,1594.711792 736.840942,1594.847900 739.454590,1594.988037 
	C743.947754,1594.988159 747.976990,1594.984375 752.253174,1594.984619 
	C752.500000,1594.988892 752.993713,1594.981201 753.457397,1594.985962 
	C757.950989,1594.988037 761.980957,1594.985229 766.478271,1594.988037 
	C775.293762,1594.990845 783.641846,1594.988037 792.326538,1594.987793 
	C793.111938,1594.988892 793.560730,1594.987305 794.452393,1594.990479 
	C797.258484,1594.990723 799.621826,1594.985962 802.424194,1594.986450 
	C804.911804,1594.987793 806.960388,1594.983887 809.254456,1594.984253 
	C809.500000,1594.988525 809.991089,1594.980103 810.454956,1594.985596 
	C814.950317,1594.988159 818.981750,1594.985352 823.461548,1594.988037 
	C826.602600,1594.989380 829.295288,1594.985352 832.449585,1594.986084 
	C836.611816,1594.987915 840.312439,1594.985229 844.480225,1594.988037 
	C852.294617,1594.990601 859.641785,1594.987671 867.418884,1594.988525 
	C869.568787,1594.989624 871.288879,1594.986816 873.424011,1594.989014 
	C875.223083,1594.990356 876.607056,1594.986816 878.441895,1594.987549 
	C881.598328,1594.989014 884.303894,1594.986328 887.407349,1594.988770 
	C888.866516,1594.989746 889.927734,1594.985718 891.440002,1594.986328 
	C894.597900,1594.988159 897.304688,1594.985352 900.478821,1594.988281 
	C927.293945,1594.990234 953.641663,1594.986572 980.419434,1594.987061 
	C982.569641,1594.988647 984.289917,1594.986328 986.473633,1594.989258 
	C991.287598,1594.990601 995.638062,1594.986572 1000.457153,1594.987061 
	C1006.620422,1594.988892 1012.315063,1594.986450 1018.458313,1594.989136 
	C1021.599609,1594.990112 1024.292236,1594.985840 1027.454102,1594.987061 
	C1033.953979,1594.987427 1039.984619,1594.982666 1046.411987,1594.985107 
	C1047.866821,1594.987549 1048.924927,1594.982788 1050.362305,1594.983887 
	C1051.499878,1594.986084 1052.258179,1594.982422 1053.451782,1594.985596 
	C1055.919067,1594.988037 1057.951172,1594.983643 1060.322021,1594.983643 
	C1061.112305,1594.985352 1061.563965,1594.982788 1062.450928,1594.986328 
	C1064.918945,1594.988770 1066.951538,1594.984741 1069.362793,1594.985596 
	C1070.498291,1594.986816 1071.255249,1594.983154 1072.341553,1594.985718 
	C1073.109741,1594.987793 1073.548584,1594.983521 1074.365967,1594.984497 
	C1075.501221,1594.986328 1076.258179,1594.983032 1077.481934,1594.986328 
	C1091.628174,1594.989258 1105.307495,1594.985474 1119.445801,1594.986572 
	C1123.273071,1594.988770 1126.641235,1594.985962 1130.381836,1594.988159 
	C1131.499146,1594.989990 1132.244019,1594.986816 1133.458252,1594.988281 
	C1148.621948,1594.989868 1163.316162,1594.986572 1178.408203,1594.988525 
	C1179.866333,1594.989868 1180.926880,1594.985840 1182.452881,1594.987061 
	C1187.281372,1594.989868 1191.644287,1594.987549 1196.338135,1594.989502 
	C1197.110352,1594.990967 1197.551636,1594.988159 1198.410645,1594.989014 
	C1200.221680,1594.990723 1201.614746,1594.988770 1203.464966,1594.991211 
	C1207.278320,1594.991699 1210.634521,1594.987671 1214.459961,1594.988037 
	C1224.288940,1594.989990 1233.648560,1594.987793 1243.406616,1594.990234 
	C1244.867065,1594.991821 1245.929321,1594.988647 1247.450195,1594.989258 
	C1251.275146,1594.990356 1254.641479,1594.987671 1258.406250,1594.989746 
	C1259.867432,1594.991577 1260.930176,1594.988525 1262.443604,1594.988892 
	C1265.599487,1594.990234 1268.304443,1594.988037 1271.445679,1594.990723 
	C1273.917847,1594.991943 1275.953979,1594.988159 1278.448853,1594.988770 
	C1282.274414,1594.990845 1285.640991,1594.988892 1289.456787,1594.991333 
	C1292.600464,1594.992676 1295.295288,1594.989502 1298.367432,1594.989868 
	C1299.500000,1594.991211 1300.255005,1594.988892 1301.469482,1594.991211 
	C1305.615845,1594.992676 1309.302612,1594.989624 1313.458740,1594.990234 
	C1325.621704,1594.990479 1337.315186,1594.986816 1349.406982,1594.988281 
	C1350.867188,1594.989868 1351.929321,1594.986328 1353.460449,1594.987061 
	C1360.622559,1594.988281 1367.315674,1594.985352 1374.406860,1594.987671 
	C1375.866577,1594.988525 1376.928101,1594.984009 1378.444824,1594.984375 
	C1381.936523,1594.987549 1384.973145,1594.985596 1388.476318,1594.989014 
	C1394.291626,1594.990967 1399.640259,1594.987549 1405.454468,1594.988037 
	C1410.282715,1594.988525 1414.645386,1594.984985 1419.338745,1594.987061 
	C1420.109985,1594.989014 1420.550781,1594.985474 1421.460693,1594.986816 
	C1439.286377,1594.991211 1456.642944,1594.990723 1474.000000,1595.296021 
	C1474.000854,1596.008423 1474.001099,1596.414917 1474.001465,1596.821533 
	C1473.836792,1596.888306 1473.671997,1596.955200 1472.790771,1597.007935 
	C1353.044189,1596.992676 1234.013916,1596.990723 1114.983765,1596.998169 
	C1113.657349,1596.998291 1112.330811,1597.119385 1111.004395,1597.184082 
M498.140076,1563.125122 
	C500.276703,1562.669556 501.051270,1561.130249 499.594330,1559.763184 
	C497.912048,1558.184692 495.864960,1556.994873 493.976288,1555.636353 
	C493.605988,1555.979858 493.235718,1556.323364 492.865417,1556.666992 
	C494.504669,1558.627563 496.143951,1560.588257 498.140076,1563.125122 
M502.062439,1563.769287 
	C503.154907,1566.147949 504.247406,1568.526611 505.559235,1571.382690 
	C507.575928,1567.350708 505.565552,1563.338501 502.062439,1563.769287 
M553.296692,463.427521 
	C553.009705,463.700836 552.722656,463.974121 552.435669,464.247406 
	C552.549622,464.365143 552.755432,464.592194 552.764221,464.584808 
	C553.066711,464.330658 553.350525,464.054321 553.296692,463.427521 
M1531.296753,475.430206 
	C1531.010376,475.703644 1530.723999,475.977081 1530.437500,476.250488 
	C1530.550903,476.368988 1530.756592,476.596741 1530.764404,476.590179 
	C1531.066528,476.335052 1531.350464,476.058533 1531.296753,475.430206 
M1500.410889,469.482666 
	C1500.410889,469.482666 1500.523682,469.415100 1500.410889,469.482666 
z"/>
<path fill="#730D0D" opacity="1.000000" stroke="none" 
	d="
M1474.328003,1596.897949 
	C1474.001099,1596.414917 1474.000854,1596.008423 1474.268188,1595.011963 
	C1481.217896,1593.286255 1487.866821,1591.574463 1494.591919,1591.188843 
	C1500.447266,1590.853149 1505.587036,1589.537109 1511.387695,1585.299927 
	C1501.125000,1582.401978 1492.759766,1587.686523 1484.004883,1587.995117 
	C1484.000000,1588.000000 1483.990234,1588.009766 1483.642212,1588.004395 
	C1482.830444,1587.982544 1482.366577,1587.965820 1481.953369,1587.685913 
	C1482.012939,1587.244263 1482.021973,1587.065796 1482.308350,1586.620850 
	C1492.036255,1584.198364 1501.594482,1582.417236 1510.898193,1579.749390 
	C1516.708862,1578.083130 1522.299683,1576.145752 1526.918579,1571.027222 
	C1530.671021,1566.868774 1537.574463,1565.740601 1542.221558,1562.155151 
	C1547.822021,1557.834229 1554.473633,1553.976685 1555.997559,1546.002441 
	C1556.000000,1546.000000 1556.004883,1545.995117 1556.382935,1545.995850 
	C1562.307007,1544.624023 1568.539795,1534.904053 1566.544556,1530.738770 
	C1568.250366,1530.370239 1569.919800,1530.009521 1571.676270,1529.630127 
	C1571.336060,1531.219604 1571.066772,1532.477661 1570.687988,1534.247070 
	C1573.007568,1532.584351 1575.361938,1531.742554 1576.235718,1530.109009 
	C1578.688599,1525.523804 1580.393799,1520.545898 1582.660522,1515.851685 
	C1584.250244,1512.559692 1583.315552,1510.942505 1579.913696,1510.323486 
	C1579.464111,1510.241577 1579.039673,1510.022949 1577.981079,1509.646118 
	C1580.172363,1508.308716 1581.352417,1507.588379 1582.000000,1507.193237 
	C1582.000000,1503.072144 1582.000000,1499.536133 1582.272461,1495.872681 
	C1582.513306,1494.462891 1582.368408,1493.166748 1582.522217,1491.906738 
	C1582.566162,1491.546875 1583.476807,1491.292725 1583.995117,1490.994995 
	C1584.000000,1491.000000 1584.009888,1491.009888 1584.160034,1491.358398 
	C1584.019287,1495.502197 1583.728516,1499.297485 1583.435791,1503.091797 
	C1584.586914,1501.583618 1585.497314,1499.770386 1586.938721,1498.626221 
	C1591.328003,1495.142212 1591.225464,1489.287354 1586.846802,1485.489258 
	C1585.947998,1484.709351 1586.270508,1482.521606 1586.289185,1480.664307 
	C1586.682129,1478.695312 1586.932129,1477.044800 1586.932861,1475.394409 
	C1587.083130,1177.021973 1587.215454,878.649597 1587.710571,580.131104 
	C1589.449585,578.803040 1590.826538,577.621094 1593.086670,575.681091 
	C1585.910034,574.357849 1583.463745,570.964600 1585.734375,564.178833 
	C1586.467163,566.583191 1586.989990,568.298401 1587.594238,570.280945 
	C1587.964600,568.471680 1588.269165,566.984314 1588.874390,564.027954 
	C1589.788818,566.831482 1590.230103,568.184387 1590.671387,569.537231 
	C1591.014282,569.483765 1591.357178,569.430298 1591.700073,569.376831 
	C1591.466675,564.917053 1591.233398,560.457336 1591.000000,555.997559 
	C1591.418457,555.998230 1591.836792,555.998962 1592.610352,556.415527 
	C1593.668213,563.517578 1594.974609,570.203003 1594.983032,576.890076 
	C1595.110229,676.801208 1595.080811,776.712646 1595.054321,876.623962 
	C1595.045044,911.421753 1594.943481,946.219543 1594.611084,981.328308 
	C1594.225342,983.121765 1594.014160,984.604248 1594.014038,986.086731 
	C1593.997559,1149.302490 1593.994019,1312.518188 1594.031372,1475.733887 
	C1594.031738,1477.482788 1594.579834,1479.231689 1594.935913,1481.412598 
	C1594.084473,1488.252075 1593.588867,1494.753052 1592.184082,1501.051147 
	C1584.679077,1534.695801 1566.234131,1560.762329 1536.954102,1578.934326 
	C1518.339355,1590.487183 1497.732544,1595.830688 1475.984375,1597.114746 
	C1475.541138,1597.067871 1475.097778,1597.021118 1474.328003,1596.897949 
M1584.389404,1507.203369 
	C1584.784790,1507.207397 1585.180176,1507.211548 1585.575562,1507.215698 
	C1585.577148,1507.051514 1585.589600,1506.744751 1585.578613,1506.743896 
	C1585.184937,1506.713745 1584.789307,1506.711792 1584.389404,1507.203369 
M1583.260376,1509.814331 
	C1583.375488,1509.972534 1583.490601,1510.130737 1583.605835,1510.288940 
	C1583.582275,1510.068726 1583.558716,1509.848511 1583.260376,1509.814331 
M1587.590088,1500.517578 
	C1587.590088,1500.517578 1587.476318,1500.586060 1587.590088,1500.517578 
M1586.589478,1502.517700 
	C1586.589478,1502.517700 1586.477051,1502.585327 1586.589478,1502.517700 
z"/>
<path fill="#730D0D" opacity="1.000000" stroke="none" 
	d="
M1582.000000,1496.000000 
	C1582.000000,1499.536133 1582.000000,1503.072144 1582.000000,1507.193237 
	C1581.352417,1507.588379 1580.172363,1508.308716 1577.981079,1509.646118 
	C1579.039673,1510.022949 1579.464111,1510.241577 1579.913696,1510.323486 
	C1583.315552,1510.942505 1584.250244,1512.559692 1582.660522,1515.851685 
	C1580.393799,1520.545898 1578.688599,1525.523804 1576.235718,1530.109009 
	C1575.361938,1531.742554 1573.007568,1532.584351 1570.687988,1534.247070 
	C1571.066772,1532.477661 1571.336060,1531.219604 1571.676270,1529.630127 
	C1569.919800,1530.009521 1568.250366,1530.370239 1566.544556,1530.738770 
	C1568.539795,1534.904053 1562.307007,1544.624023 1556.327026,1545.857422 
	C1555.806152,1545.669067 1555.719116,1545.619995 1555.632202,1545.570923 
	C1555.753174,1545.715576 1555.874146,1545.860229 1555.995117,1546.004883 
	C1554.473633,1553.976685 1547.822021,1557.834229 1542.221558,1562.155151 
	C1537.574463,1565.740601 1530.671021,1566.868774 1526.918579,1571.027222 
	C1522.299683,1576.145752 1516.708862,1578.083130 1510.898193,1579.749390 
	C1501.594482,1582.417236 1492.036255,1584.198364 1481.838135,1586.663208 
	C1177.689575,1586.972046 874.288574,1586.972046 570.887634,1586.972046 
	C578.276367,1587.995117 585.678955,1587.995483 593.081482,1587.995117 
	C889.355286,1587.979858 1185.629028,1587.964478 1481.902832,1587.949097 
	C1482.366577,1587.965820 1482.830444,1587.982544 1483.680908,1588.287598 
	C1484.374146,1588.896729 1484.680786,1589.217407 1484.987427,1589.538086 
	C1485.169312,1589.328613 1485.351318,1589.119141 1485.533203,1588.909668 
	C1485.025391,1588.603149 1484.517578,1588.296753 1484.009766,1587.990234 
	C1492.759766,1587.686523 1501.125000,1582.401978 1511.387695,1585.299927 
	C1505.587036,1589.537109 1500.447266,1590.853149 1494.591919,1591.188843 
	C1487.866821,1591.574463 1481.217896,1593.286255 1474.267700,1594.706055 
	C1456.642944,1594.990723 1439.286377,1594.991211 1421.316650,1594.763916 
	C1420.138428,1594.684570 1419.573364,1594.833130 1419.008179,1594.981445 
	C1414.645386,1594.984985 1410.282715,1594.988525 1405.161377,1594.694336 
	C1398.938477,1594.592285 1393.474243,1594.787964 1388.009888,1594.983643 
	C1384.973145,1594.985596 1381.936523,1594.987549 1378.235352,1594.726562 
	C1376.383423,1594.636719 1375.196167,1594.809570 1374.008789,1594.982422 
	C1367.315674,1594.985352 1360.622559,1594.988281 1353.250977,1594.728516 
	C1351.384521,1594.638306 1350.196655,1594.810791 1349.008789,1594.983154 
	C1337.315186,1594.986816 1325.621704,1594.990479 1313.172119,1594.699219 
	C1308.614014,1594.598511 1304.812012,1594.792603 1301.010010,1594.986694 
	C1300.255005,1594.988892 1299.500000,1594.991211 1298.094238,1594.705078 
	C1294.631592,1594.606689 1291.819702,1594.796753 1289.007690,1594.986816 
	C1285.640991,1594.988892 1282.274414,1594.990845 1278.192383,1594.711304 
	C1275.321167,1594.615112 1273.165283,1594.800415 1271.009521,1594.985840 
	C1268.304443,1594.988037 1265.599487,1594.990234 1262.234131,1594.729980 
	C1260.385132,1594.640015 1259.196411,1594.812500 1258.007690,1594.984985 
	C1254.641479,1594.987671 1251.275146,1594.990356 1247.240967,1594.730225 
	C1245.384766,1594.640259 1244.196533,1594.812866 1243.008301,1594.985474 
	C1233.648560,1594.987793 1224.288940,1594.989990 1214.176270,1594.699097 
	C1209.951538,1594.599609 1206.479736,1594.793213 1203.007812,1594.986694 
	C1201.614746,1594.988770 1200.221680,1594.990723 1198.266724,1594.765381 
	C1197.138916,1594.687256 1196.573120,1594.836304 1196.007202,1594.985352 
	C1191.644287,1594.987549 1187.281372,1594.989868 1182.244141,1594.728638 
	C1180.383423,1594.637939 1179.197021,1594.810669 1178.010498,1594.983398 
	C1163.316162,1594.986572 1148.621948,1594.989868 1133.276855,1594.740967 
	C1131.753784,1594.653687 1130.881592,1594.818359 1130.009399,1594.983154 
	C1126.641235,1594.985962 1123.273071,1594.988770 1119.151855,1594.692993 
	C1105.165649,1594.281250 1091.932495,1594.156372 1078.698975,1594.094360 
	C1078.139038,1594.091797 1077.576416,1594.671509 1077.015015,1594.979736 
	C1076.258179,1594.983032 1075.501221,1594.986328 1074.222900,1594.762329 
	C1073.138428,1594.683105 1072.575439,1594.831299 1072.012329,1594.979492 
	C1071.255249,1594.983154 1070.498291,1594.986816 1069.106934,1594.708740 
	C1066.320435,1594.611328 1064.167969,1594.795654 1062.015625,1594.979980 
	C1061.563965,1594.982788 1061.112305,1594.985352 1060.066162,1594.707153 
	C1057.319946,1594.610474 1055.168335,1594.794678 1053.016602,1594.978760 
	C1052.258179,1594.982422 1051.499878,1594.986084 1050.154175,1594.726318 
	C1048.383057,1594.634521 1047.199097,1594.806152 1046.015259,1594.977905 
	C1039.984619,1594.982666 1033.953979,1594.987427 1027.181152,1594.703125 
	C1023.629211,1594.603882 1020.819397,1594.793945 1018.009644,1594.983887 
	C1012.315063,1594.986450 1006.620422,1594.988892 1000.166138,1594.694946 
	C994.940979,1594.593506 990.475586,1594.788696 986.010193,1594.983887 
	C984.289917,1594.986328 982.569641,1594.988647 980.125244,1594.693115 
	C978.757812,1594.265747 978.114502,1594.023560 977.471008,1594.022949 
	C952.878174,1594.001709 928.285339,1593.988403 903.692688,1594.042236 
	C902.464905,1594.044922 901.238464,1594.655151 900.011475,1594.982544 
	C897.304688,1594.985352 894.597900,1594.988159 891.230896,1594.728027 
	C889.383606,1594.637939 888.196533,1594.810913 887.009399,1594.983887 
	C884.303894,1594.986328 881.598328,1594.989014 878.212708,1594.720947 
	C876.024719,1594.628052 874.516785,1594.805908 873.008911,1594.983887 
	C871.288879,1594.986816 869.568787,1594.989624 867.125061,1594.694336 
	C858.938599,1594.591553 851.475891,1594.786987 844.013123,1594.982422 
	C840.312439,1594.985229 836.611816,1594.987915 832.176147,1594.701904 
	C828.631836,1594.603027 825.822510,1594.792725 823.013245,1594.982422 
	C818.981750,1594.985352 814.950317,1594.988159 810.368286,1594.821899 
	C809.548157,1594.761841 809.278503,1594.870850 809.008911,1594.979980 
	C806.960388,1594.983887 804.911804,1594.987793 802.158447,1594.705444 
	C798.972290,1594.608032 796.490967,1594.796875 794.009583,1594.985718 
	C793.560730,1594.987305 793.111938,1594.988892 792.032532,1594.693604 
	C786.964539,1594.264526 782.523376,1593.958252 778.090698,1594.051514 
	C774.059326,1594.136230 770.037109,1594.655029 766.010864,1594.982544 
	C761.980957,1594.985229 757.950989,1594.988037 753.369873,1594.822021 
	C752.547913,1594.762207 752.277100,1594.871338 752.006287,1594.980469 
	C747.976990,1594.984375 743.947754,1594.988159 739.185425,1594.704102 
	C736.302246,1594.279175 734.152222,1594.142090 732.002136,1594.004883 
	C679.343384,1594.003296 626.684448,1594.048218 574.026001,1593.930908 
	C568.530457,1593.918701 562.747375,1594.412231 557.883606,1590.659912 
	C557.398499,1590.285767 556.233521,1590.418579 555.563049,1590.717529 
	C549.210205,1593.549194 544.388672,1589.059082 539.048096,1587.254639 
	C536.193848,1586.290161 532.886108,1583.063477 530.927551,1583.820190 
	C527.119629,1585.291504 526.532166,1581.821655 524.392334,1581.064819 
	C522.222656,1580.297363 520.549622,1578.125732 518.186401,1576.180054 
	C518.922058,1575.727295 519.989929,1575.070068 520.774170,1574.587402 
	C520.836243,1569.255615 515.970337,1569.151489 512.420044,1567.064941 
	C512.016724,1567.010376 511.926697,1566.927612 511.926697,1566.927612 
	C513.036621,1561.655518 507.301392,1562.465332 505.321655,1559.751465 
	C503.284119,1556.958252 499.570343,1555.387817 496.254547,1553.116455 
	C495.919006,1552.950684 495.860413,1552.893188 495.784821,1552.642456 
	C495.175903,1551.975220 494.642609,1551.558716 494.068756,1551.093628 
	C494.028198,1551.045044 493.945648,1550.949219 493.945648,1550.949219 
	C490.442139,1545.774292 486.976654,1540.573120 483.416901,1535.437134 
	C481.942444,1533.309937 480.266174,1531.322632 478.353546,1528.843262 
	C477.874329,1528.155273 477.723206,1527.895752 477.572083,1527.636108 
	C477.692169,1528.103638 477.812256,1528.571167 477.932312,1529.038696 
	C477.154846,1529.661987 476.255432,1530.928711 475.618927,1530.808105 
	C469.834869,1529.711792 466.673126,1522.366699 469.614777,1516.470703 
	C464.620331,1515.000366 462.716431,1511.842651 463.663910,1506.508911 
	C464.004120,1504.593506 462.663574,1502.044434 461.423889,1500.243042 
	C456.648804,1493.304077 458.378510,1485.824585 458.571167,1478.224243 
	C458.779236,1470.017456 457.234192,1461.779785 456.751831,1453.538086 
	C456.379761,1447.180664 456.204102,1440.787476 456.416809,1434.426147 
	C456.701050,1425.925049 458.473022,1417.354004 457.776764,1408.964844 
	C456.358276,1391.873291 456.006622,1374.794312 456.003998,1357.679688 
	C456.002167,1345.760498 455.897644,1333.840088 456.036011,1321.922485 
	C456.154541,1311.715820 456.820740,1301.511353 456.775024,1291.307983 
	C456.659821,1265.598267 456.170959,1239.890259 456.059021,1214.180542 
	C456.014465,1203.951416 456.811737,1193.719238 456.789734,1183.489258 
	C456.762054,1170.610474 456.085876,1157.732788 456.071411,1144.854126 
	C456.060272,1134.957886 456.898438,1125.060791 456.887115,1115.164551 
	C456.874695,1104.296021 456.173950,1093.429443 456.068329,1082.559204 
	C456.017578,1077.332886 456.738617,1072.103638 456.929199,1066.869019 
	C457.031555,1064.057495 456.698700,1061.232666 456.656281,1058.412476 
	C456.602051,1054.806152 456.722321,1051.196289 456.622589,1047.591797 
	C456.490356,1042.813110 455.999268,1038.036499 456.041931,1033.262329 
	C456.303009,1004.038818 456.688965,974.816528 456.999481,945.593445 
	C457.350464,912.565857 457.715546,879.538208 457.975189,846.509827 
	C458.100250,830.601257 457.997406,814.690857 457.997528,798.781311 
	C457.998016,738.883118 457.946106,678.984924 458.043732,619.086853 
	C458.062805,607.377502 458.837769,595.670471 458.929138,583.959717 
	C458.986694,576.586792 458.374298,569.210144 458.179932,561.832153 
	C458.146698,560.569824 458.635986,559.271790 459.002686,558.025208 
	C459.937561,554.847351 460.832672,551.650635 461.959778,548.539734 
	C462.525452,546.978455 463.562256,545.587891 464.385956,544.120117 
	C464.878296,545.815674 465.923492,547.570374 465.749908,549.194763 
	C465.368195,552.767273 464.333130,556.266663 463.642303,559.811035 
	C463.352783,561.296326 463.260101,562.820007 464.183685,564.613342 
	C464.578033,563.835999 465.130188,563.099304 465.342651,562.275024 
	C467.790894,552.777161 470.400574,543.311035 472.432159,533.723145 
	C472.879944,531.609924 471.229034,529.052002 470.342438,526.004150 
	C472.182678,527.077637 473.598419,527.903442 474.908844,528.667908 
	C478.665222,525.397583 477.437561,516.855713 485.248962,518.674072 
	C485.997192,515.285461 485.841583,511.031219 487.792389,508.259308 
	C491.137024,503.506714 495.638885,499.508881 499.948364,495.510468 
	C504.941345,490.877838 510.251007,486.586456 515.268127,482.280060 
	C517.406250,482.319427 521.214722,488.016418 520.416626,480.785065 
	C520.359131,480.264343 521.811523,479.638062 522.465454,478.966888 
	C524.866699,476.502258 527.227234,473.997925 530.579956,470.484985 
	C534.398804,470.484985 540.210083,470.962006 545.883301,470.283813 
	C548.722534,469.944427 551.150757,466.851898 554.044434,466.138824 
	C559.973633,464.677673 566.091431,463.981689 572.573486,462.896729 
	C572.178833,461.614014 571.883179,460.653076 571.377380,459.009155 
	C574.445618,458.633118 577.346985,458.277527 580.248413,457.921936 
	C580.345581,458.307556 580.442810,458.693146 580.540039,459.078766 
	C579.409607,459.776947 578.279236,460.475128 576.732849,461.565704 
	C576.055237,462.286499 575.793579,462.614868 575.531921,462.943268 
	C576.698059,462.948303 577.864258,462.957764 579.030396,462.957794 
	C876.299622,462.962982 1173.568848,462.967499 1470.838135,462.972046 
	C1472.850098,462.972076 1474.862183,462.972015 1476.874146,462.972015 
	C1476.871216,462.646973 1476.868286,462.321899 1476.865234,461.996857 
	C1473.556030,461.996857 1470.246826,461.996948 1466.937622,461.996826 
	C1422.280640,461.995148 1377.623657,462.015564 1332.966675,461.985168 
	C1293.644653,461.958374 1254.322510,461.874786 1215.000488,461.816223 
	C1216.145386,460.568604 1217.248169,458.288269 1218.442261,458.239502 
	C1226.748413,457.900116 1235.076294,458.142731 1243.392090,457.965637 
	C1251.844727,457.785583 1260.297852,456.950806 1268.739868,457.087250 
	C1287.318115,457.387421 1305.888672,458.154449 1324.464844,458.634033 
	C1327.076050,458.701447 1329.701050,458.029999 1332.319946,458.027740 
	C1378.424316,457.988098 1424.528687,457.980438 1470.633057,458.027161 
	C1475.597534,458.032196 1480.561768,458.417358 1485.565796,459.738678 
	C1483.702515,460.933319 1481.839233,462.127960 1479.424561,463.676117 
	C1486.660645,467.424225 1496.043701,460.533813 1500.140869,470.940216 
	C1500.630981,470.940216 1501.482910,471.107635 1502.243408,470.914581 
	C1510.634399,468.784210 1517.079956,472.063782 1523.212646,477.559265 
	C1525.647217,479.740906 1529.460083,480.384613 1532.780884,481.785675 
	C1532.914551,483.574829 1533.046509,485.339783 1533.078247,485.765381 
	C1536.324219,486.617584 1538.820068,487.272858 1541.904297,487.962036 
	C1542.492676,487.995911 1542.990234,488.004791 1543.000854,488.367798 
	C1547.340942,492.150208 1551.670532,495.569611 1556.007812,499.243164 
	C1556.023315,499.666595 1556.031128,499.835907 1556.021973,500.415649 
	C1555.413696,503.923492 1556.580566,506.240723 1559.275146,507.728790 
	C1562.387085,509.447449 1563.979126,511.596680 1562.187012,515.239929 
	C1561.942261,515.737366 1562.576782,516.667358 1562.890625,517.673889 
	C1563.785156,516.961304 1564.390137,516.479309 1564.997559,515.998657 
	C1565.000000,516.000000 1565.004883,516.004883 1565.004883,516.004883 
	C1567.916870,520.234314 1570.832031,524.461487 1573.735352,528.696838 
	C1574.015503,529.105347 1574.530518,529.680969 1574.416626,529.982910 
	C1572.167236,535.943604 1578.489624,538.116394 1579.840332,542.440796 
	C1580.511963,544.590759 1580.610962,546.918335 1581.266724,549.075073 
	C1581.546021,549.993408 1582.587158,550.680054 1583.282104,551.471924 
	C1583.516846,550.886658 1583.751587,550.301453 1584.295898,549.515381 
	C1585.305542,550.559143 1586.005615,551.803833 1586.812744,553.238770 
	C1587.585449,551.391846 1588.295166,549.695557 1589.004883,547.999207 
	C1589.667114,550.429199 1590.329346,552.859253 1590.995850,555.643433 
	C1591.233398,560.457336 1591.466675,564.917053 1591.700073,569.376831 
	C1591.357178,569.430298 1591.014282,569.483765 1590.671387,569.537231 
	C1590.230103,568.184387 1589.788818,566.831482 1588.874390,564.027954 
	C1588.269165,566.984314 1587.964600,568.471680 1587.594238,570.280945 
	C1586.989990,568.298401 1586.467163,566.583191 1585.734375,564.178833 
	C1583.463745,570.964600 1585.910034,574.357849 1593.086670,575.681091 
	C1590.826538,577.621094 1589.449585,578.803040 1587.619019,579.922729 
	C1587.048584,579.573486 1586.996826,579.275269 1587.009888,578.625061 
	C1586.875366,577.543335 1586.741089,576.802368 1586.606812,576.061340 
	C1586.406982,576.085571 1586.207031,576.109863 1586.007202,576.134094 
	C1586.007202,577.093384 1586.007202,578.052734 1586.033203,579.479431 
	C1586.046875,773.681091 1586.031372,967.415344 1586.023560,1161.149658 
	C1586.019165,1267.760742 1586.027466,1374.371704 1586.030029,1480.982788 
	C1586.270508,1482.521606 1585.947998,1484.709351 1586.846802,1485.489258 
	C1591.225464,1489.287354 1591.328003,1495.142212 1586.938721,1498.626221 
	C1585.497314,1499.770386 1584.586914,1501.583618 1583.435791,1503.091797 
	C1583.728516,1499.297485 1584.019287,1495.502197 1584.444336,1491.321411 
	C1584.899902,1490.628296 1585.221436,1490.320557 1585.542847,1490.012939 
	C1585.332886,1489.830078 1585.122803,1489.647217 1584.912842,1489.464355 
	C1584.605347,1489.973022 1584.297729,1490.481567 1583.990234,1490.990112 
	C1583.476807,1491.292725 1582.566162,1491.546875 1582.522217,1491.906738 
	C1582.368408,1493.166748 1582.513306,1494.462891 1582.217896,1495.734375 
	C1581.805664,1495.673828 1581.720459,1495.624268 1581.635254,1495.574585 
	C1581.756836,1495.716431 1581.878418,1495.858276 1582.000000,1496.000000 
M476.093262,1525.371216 
	C476.200775,1525.409790 476.308319,1525.448364 476.415833,1525.486938 
	C476.306610,1525.306152 476.197357,1525.125488 476.013092,1524.356689 
	C475.716125,1523.865723 475.419189,1523.374634 475.026306,1522.415039 
	C474.874481,1522.157227 474.722687,1521.899414 474.570862,1521.641602 
	C474.691376,1522.106934 474.811859,1522.572266 475.003021,1523.634155 
	C475.317261,1524.118408 475.631531,1524.602783 476.093262,1525.371216 
M1577.493286,1517.792358 
	C1577.459839,1517.412720 1577.426392,1517.033203 1577.392944,1516.653564 
	C1577.238281,1517.088379 1577.083496,1517.523315 1576.528687,1518.231689 
	C1576.546143,1518.606812 1576.563477,1518.981934 1576.580811,1519.357056 
	C1576.758179,1518.941040 1576.935547,1518.524902 1577.493286,1517.792358 
M463.903717,939.500000 
	C463.903717,815.952087 463.903717,692.404175 463.903717,568.856262 
	C463.698944,568.856506 463.494141,568.856689 463.289368,568.856934 
	C463.289368,872.536255 463.289368,1176.215576 463.289368,1479.894897 
	C463.493530,1479.894897 463.697693,1479.894897 463.901855,1479.895020 
	C463.901855,1300.096680 463.901855,1120.298340 463.903717,939.500000 
M471.983490,1512.196411 
	C470.874298,1509.482056 469.765076,1506.767700 468.655853,1504.053345 
	C468.262543,1504.266968 467.869232,1504.480591 467.475922,1504.694214 
	C468.326599,1507.480103 469.146240,1510.276733 470.105499,1513.024780 
	C470.162750,1513.188843 471.338135,1512.962524 471.983490,1512.196411 
M465.340027,1499.432739 
	C465.807770,1500.539062 466.275482,1501.645386 466.743195,1502.751709 
	C468.054169,1501.715942 468.615051,1500.435547 468.196594,1499.802856 
	C467.753754,1499.133301 466.378906,1499.079956 465.340027,1499.432739 
M1524.099487,1572.734009 
	C1524.043945,1572.233154 1523.988403,1571.732300 1523.932861,1571.231445 
	C1523.484619,1571.346436 1523.036377,1571.461304 1522.588135,1571.576172 
	C1522.891846,1572.003418 1523.195435,1572.430542 1524.099487,1572.734009 
M551.315552,470.313934 
	C551.023743,470.603546 550.731934,470.893188 550.440125,471.182800 
	C550.971497,471.363251 551.502869,471.543732 552.034241,471.724182 
	C551.962097,471.327942 551.889954,470.931732 551.315552,470.313934 
M1571.428467,1515.703491 
	C1571.701660,1515.989502 1571.974731,1516.275635 1572.247803,1516.561768 
	C1572.366211,1516.448486 1572.593872,1516.243042 1572.587280,1516.235352 
	C1572.332275,1515.933472 1572.056030,1515.649780 1571.428467,1515.703491 
M1574.741089,1522.185425 
	C1574.625610,1522.026611 1574.510132,1521.867798 1574.394653,1521.709106 
	C1574.418091,1521.930298 1574.441528,1522.151489 1574.741089,1522.185425 
M1575.259644,1526.816040 
	C1575.374634,1526.974365 1575.489746,1527.132812 1575.604736,1527.291138 
	C1575.581421,1527.070923 1575.558105,1526.850708 1575.259644,1526.816040 
M472.753174,1517.191895 
	C472.631775,1517.026123 472.510345,1516.860474 472.388947,1516.694702 
	C472.414490,1516.925781 472.440002,1517.156982 472.753174,1517.191895 
M473.481079,1519.607178 
	C473.481079,1519.607178 473.399078,1519.474976 473.481079,1519.607178 
M494.483246,503.592651 
	C494.483246,503.592651 494.413361,503.476990 494.483246,503.592651 
M1575.483398,1524.587769 
	C1575.483398,1524.587769 1575.417114,1524.476807 1575.483398,1524.587769 
z"/>
<path fill="#730D0D" opacity="1.000000" stroke="none" 
	d="
M1214.535522,461.880188 
	C1254.322510,461.874786 1293.644653,461.958374 1332.966675,461.985168 
	C1377.623657,462.015564 1422.280640,461.995148 1466.937622,461.996826 
	C1470.246826,461.996948 1473.556030,461.996857 1476.865234,461.996857 
	C1476.868286,462.321899 1476.871216,462.646973 1476.874146,462.972015 
	C1474.862183,462.972015 1472.850098,462.972076 1470.838135,462.972046 
	C1173.568848,462.967499 876.299622,462.962982 579.030396,462.957794 
	C577.864258,462.957764 576.698059,462.948303 575.531921,462.943268 
	C575.793579,462.614868 576.055237,462.286499 576.653931,461.903503 
	C616.296204,461.896210 655.601440,461.980927 694.906616,461.984253 
	C866.295715,461.998779 1037.684814,461.989777 1209.073853,461.987244 
	C1210.739380,461.987213 1212.405029,461.959106 1214.535522,461.880188 
z"/>
<path fill="#730D0D" opacity="1.000000" stroke="none" 
	d="
M1542.990234,488.004761 
	C1542.990234,488.004791 1542.492676,487.995911 1542.243896,487.991241 
	C1541.554443,482.468384 1536.843018,480.237030 1532.931396,477.390106 
	C1533.195801,476.869843 1533.460205,476.349609 1533.724609,475.829346 
	C1535.860352,476.385071 1538.601685,476.287903 1540.026855,477.609772 
	C1546.144043,483.282959 1553.235474,487.801697 1558.349487,494.769012 
	C1560.666382,497.925293 1565.115234,499.560974 1567.408691,503.520050 
	C1570.058350,508.093964 1573.966675,511.959625 1576.439453,516.605957 
	C1577.588013,518.764160 1576.635498,522.040588 1576.635498,524.810120 
	C1576.150391,524.898621 1575.665283,524.987122 1575.180176,525.075623 
	C1573.005615,521.411499 1570.830933,517.747314 1568.202881,513.794067 
	C1567.555054,513.245972 1567.304565,513.064331 1566.989258,512.591309 
	C1565.014648,509.619354 1562.142090,507.269592 1561.324951,504.345490 
	C1560.413330,501.083344 1558.987061,500.025055 1556.039062,500.005219 
	C1556.031128,499.835907 1556.023315,499.666595 1556.005859,498.860138 
	C1555.298828,495.308899 1546.613892,486.856567 1544.000977,486.689758 
	C1543.693237,486.670105 1543.328491,487.544708 1542.990234,488.004761 
z"/>
<path fill="#730D0D" opacity="1.000000" stroke="none" 
	d="
M1588.997803,547.613281 
	C1588.295166,549.695557 1587.585449,551.391846 1586.812744,553.238770 
	C1586.005615,551.803833 1585.305542,550.559143 1584.301025,549.162720 
	C1582.365112,543.920654 1580.686646,538.844727 1579.123535,533.733521 
	C1578.412964,531.410278 1577.930420,529.017212 1577.344482,526.655823 
	C1577.728149,526.283936 1578.111694,525.912109 1578.495361,525.540222 
	C1579.699585,526.620667 1581.454712,527.472778 1582.013428,528.820801 
	C1584.524780,534.879333 1586.696411,541.078735 1588.997803,547.613281 
z"/>
<path fill="#730D0D" opacity="1.000000" stroke="none" 
	d="
M900.478821,1594.988281 
	C901.238464,1594.655151 902.464905,1594.044922 903.692688,1594.042236 
	C928.285339,1593.988403 952.878174,1594.001709 977.471008,1594.022949 
	C978.114502,1594.023560 978.757812,1594.265747 979.695312,1594.689087 
	C953.641663,1594.986572 927.293945,1594.990234 900.478821,1594.988281 
z"/>
<path fill="#730D0D" opacity="1.000000" stroke="none" 
	d="
M1077.481934,1594.986328 
	C1077.576416,1594.671509 1078.139038,1594.091797 1078.698975,1594.094360 
	C1091.932495,1594.156372 1105.165649,1594.281250 1118.692871,1594.687988 
	C1105.307495,1594.985474 1091.628174,1594.989258 1077.481934,1594.986328 
z"/>
<path fill="#730D0D" opacity="1.000000" stroke="none" 
	d="
M495.941528,1552.985107 
	C489.962860,1556.084473 486.978607,1555.117676 486.000336,1549.395752 
	C486.000000,1549.000000 485.998779,1549.000000 485.998779,1549.000000 
	C488.403473,1549.635864 490.808167,1550.271851 493.579254,1550.928467 
	C493.945648,1550.949219 494.028198,1551.045044 494.071350,1551.386353 
	C494.696472,1552.116211 495.278442,1552.504761 495.860413,1552.893188 
	C495.860413,1552.893188 495.919006,1552.950684 495.941528,1552.985107 
z"/>
<path fill="#730D0D" opacity="1.000000" stroke="none" 
	d="
M497.961639,1562.836914 
	C496.143951,1560.588257 494.504669,1558.627563 492.865417,1556.666992 
	C493.235718,1556.323364 493.605988,1555.979858 493.976288,1555.636353 
	C495.864960,1556.994873 497.912048,1558.184692 499.594330,1559.763184 
	C501.051270,1561.130249 500.276703,1562.669556 497.961639,1562.836914 
z"/>
<path fill="#730D0D" opacity="1.000000" stroke="none" 
	d="
M766.478271,1594.988037 
	C770.037109,1594.655029 774.059326,1594.136230 778.090698,1594.051514 
	C782.523376,1593.958252 786.964539,1594.264526 791.695923,1594.690918 
	C783.641846,1594.988037 775.293762,1594.990845 766.478271,1594.988037 
z"/>
<path fill="#730D0D" opacity="1.000000" stroke="none" 
	d="
M502.123657,1563.415771 
	C505.565552,1563.338501 507.575928,1567.350708 505.559235,1571.382690 
	C504.247406,1568.526611 503.154907,1566.147949 502.123657,1563.415771 
z"/>
<path fill="#730D0D" opacity="1.000000" stroke="none" 
	d="
M844.480225,1594.987915 
	C851.475891,1594.786987 858.938599,1594.591553 866.695190,1594.690430 
	C859.641785,1594.987671 852.294617,1594.990601 844.480225,1594.987915 
z"/>
<path fill="#730D0D" opacity="1.000000" stroke="none" 
	d="
M1388.476318,1594.989014 
	C1393.474243,1594.787964 1398.938477,1594.592285 1404.695923,1594.690308 
	C1399.640259,1594.987549 1394.291626,1594.990967 1388.476318,1594.989014 
z"/>
<path fill="#730D0D" opacity="1.000000" stroke="none" 
	d="
M986.473633,1594.989258 
	C990.475586,1594.788696 994.940979,1594.593506 999.697449,1594.690430 
	C995.638062,1594.986572 991.287598,1594.990601 986.473633,1594.989258 
z"/>
<path fill="#730D0D" opacity="1.000000" stroke="none" 
	d="
M1301.469482,1594.991211 
	C1304.812012,1594.792603 1308.614014,1594.598511 1312.702759,1594.695557 
	C1309.302612,1594.989624 1305.615845,1594.992676 1301.469482,1594.991211 
z"/>
<path fill="#730D0D" opacity="1.000000" stroke="none" 
	d="
M1203.464966,1594.991211 
	C1206.479736,1594.793213 1209.951538,1594.599609 1213.707031,1594.694824 
	C1210.634521,1594.987671 1207.278320,1594.991699 1203.464966,1594.991211 
z"/>
<path fill="#730D0D" opacity="1.000000" stroke="none" 
	d="
M512.063721,1567.049561 
	C512.251465,1568.262207 512.392273,1569.435669 512.533020,1570.609253 
	C511.951294,1570.671631 511.369568,1570.734131 510.787842,1570.796631 
	C510.937897,1569.568359 511.087952,1568.339966 511.582336,1567.019653 
	C511.926697,1566.927612 512.016724,1567.010376 512.063721,1567.049561 
z"/>
<path fill="#730D0D" opacity="1.000000" stroke="none" 
	d="
M823.461548,1594.987915 
	C825.822510,1594.792725 828.631836,1594.603027 831.714539,1594.697266 
	C829.295288,1594.985352 826.602600,1594.989380 823.461548,1594.987915 
z"/>
<path fill="#730D0D" opacity="1.000000" stroke="none" 
	d="
M1289.456787,1594.991211 
	C1291.819702,1594.796753 1294.631592,1594.606689 1297.716797,1594.701416 
	C1295.295288,1594.989502 1292.600464,1594.992676 1289.456787,1594.991211 
z"/>
<path fill="#730D0D" opacity="1.000000" stroke="none" 
	d="
M1018.458313,1594.989258 
	C1020.819397,1594.793945 1023.629211,1594.603882 1026.711914,1594.697754 
	C1024.292236,1594.985840 1021.599609,1594.990112 1018.458313,1594.989258 
z"/>
<path fill="#730D0D" opacity="1.000000" stroke="none" 
	d="
M794.452393,1594.990479 
	C796.490967,1594.796875 798.972290,1594.608032 801.719421,1594.700195 
	C799.621826,1594.985962 797.258484,1594.990723 794.452393,1594.990479 
z"/>
<path fill="#730D0D" opacity="1.000000" stroke="none" 
	d="
M484.001221,1546.000000 
	C484.751282,1546.797729 485.501343,1547.595581 486.125092,1548.696655 
	C485.998779,1549.000000 486.000000,1549.000000 486.000000,1549.000000 
	C485.336609,1548.236084 484.673187,1547.472046 484.004883,1546.354004 
	C484.000000,1546.000000 484.001221,1546.000000 484.001221,1546.000000 
z"/>
<path fill="#730D0D" opacity="1.000000" stroke="none" 
	d="
M483.999390,1546.000000 
	C483.333557,1544.611694 482.668304,1543.223389 482.003082,1541.835083 
	C482.519196,1541.690308 483.035339,1541.545410 483.551453,1541.400635 
	C483.701843,1542.674438 483.852203,1543.948120 484.001892,1545.610962 
	C484.001221,1546.000000 484.000000,1546.000000 483.999390,1546.000000 
z"/>
<path fill="#730D0D" opacity="1.000000" stroke="none" 
	d="
M1062.450928,1594.986328 
	C1064.167969,1594.795654 1066.320435,1594.611328 1068.728516,1594.703857 
	C1066.951538,1594.984741 1064.918945,1594.988770 1062.450928,1594.986328 
z"/>
<path fill="#730D0D" opacity="1.000000" stroke="none" 
	d="
M732.271729,1594.290405 
	C734.152222,1594.142090 736.302246,1594.279175 738.721558,1594.700195 
	C736.840942,1594.847900 734.691101,1594.711792 732.271729,1594.290405 
z"/>
<path fill="#730D0D" opacity="1.000000" stroke="none" 
	d="
M1053.451782,1594.985596 
	C1055.168335,1594.794678 1057.319946,1594.610474 1059.727539,1594.702759 
	C1057.951172,1594.983643 1055.919067,1594.988037 1053.451782,1594.985596 
z"/>
<path fill="#730D0D" opacity="1.000000" stroke="none" 
	d="
M1271.445679,1594.990723 
	C1273.165283,1594.800415 1275.321167,1594.615112 1277.733398,1594.707031 
	C1275.953979,1594.988159 1273.917847,1594.991943 1271.445679,1594.990723 
z"/>
<path fill="#730D0D" opacity="1.000000" stroke="none" 
	d="
M1566.998047,512.960083 
	C1567.304565,513.064331 1567.555054,513.245972 1567.844971,513.718201 
	C1567.170532,514.597046 1566.400391,515.262634 1565.317627,515.966553 
	C1565.004883,516.004883 1565.000000,516.000000 1564.997559,515.666199 
	C1564.995117,514.889099 1564.995117,514.445801 1564.997559,514.001221 
	C1565.000000,514.000000 1565.004883,513.996704 1565.264160,513.887817 
	C1566.014893,513.506042 1566.506470,513.233093 1566.998047,512.960083 
z"/>
<path fill="#730D0D" opacity="1.000000" stroke="none" 
	d="
M873.424011,1594.989014 
	C874.516785,1594.805908 876.024719,1594.628052 877.761841,1594.716797 
	C876.607056,1594.986816 875.223083,1594.990356 873.424011,1594.989014 
z"/>
<path fill="#730D0D" opacity="1.000000" stroke="none" 
	d="
M1178.408203,1594.988525 
	C1179.197021,1594.810669 1180.383423,1594.637939 1181.778687,1594.723633 
	C1180.926880,1594.985840 1179.866333,1594.989868 1178.408203,1594.988525 
z"/>
<path fill="#730D0D" opacity="1.000000" stroke="none" 
	d="
M1243.406616,1594.990234 
	C1244.196533,1594.812866 1245.384766,1594.640259 1246.782227,1594.726562 
	C1245.929321,1594.988647 1244.867065,1594.991821 1243.406616,1594.990234 
z"/>
<path fill="#730D0D" opacity="1.000000" stroke="none" 
	d="
M553.466858,463.604340 
	C553.350525,464.054321 553.066711,464.330658 552.764221,464.584808 
	C552.755432,464.592194 552.549622,464.365143 552.435669,464.247406 
	C552.722656,463.974121 553.009705,463.700836 553.466858,463.604340 
z"/>
<path fill="#730D0D" opacity="1.000000" stroke="none" 
	d="
M1258.406250,1594.989746 
	C1259.196411,1594.812500 1260.385132,1594.640015 1261.783447,1594.726562 
	C1260.930176,1594.988525 1259.867432,1594.991577 1258.406250,1594.989746 
z"/>
<path fill="#730D0D" opacity="1.000000" stroke="none" 
	d="
M1046.411987,1594.985107 
	C1047.199097,1594.806152 1048.383057,1594.634521 1049.774902,1594.720459 
	C1048.924927,1594.982788 1047.866821,1594.987549 1046.411987,1594.985107 
z"/>
<path fill="#730D0D" opacity="1.000000" stroke="none" 
	d="
M887.407349,1594.988892 
	C888.196533,1594.810913 889.383606,1594.637939 890.779785,1594.723389 
	C889.927734,1594.985718 888.866516,1594.989746 887.407349,1594.988892 
z"/>
<path fill="#730D0D" opacity="1.000000" stroke="none" 
	d="
M1349.406982,1594.988281 
	C1350.196655,1594.810791 1351.384521,1594.638306 1352.781860,1594.724365 
	C1351.929321,1594.986328 1350.867188,1594.989868 1349.406982,1594.988281 
z"/>
<path fill="#730D0D" opacity="1.000000" stroke="none" 
	d="
M1374.406860,1594.987793 
	C1375.196167,1594.809570 1376.383423,1594.636719 1377.780273,1594.721680 
	C1376.928101,1594.984009 1375.866577,1594.988525 1374.406860,1594.987793 
z"/>
<path fill="#730D0D" opacity="1.000000" stroke="none" 
	d="
M1531.466797,475.607483 
	C1531.350464,476.058533 1531.066528,476.335052 1530.764404,476.590179 
	C1530.756592,476.596741 1530.550903,476.368988 1530.437500,476.250488 
	C1530.723999,475.977081 1531.010376,475.703644 1531.466797,475.607483 
z"/>
<path fill="#730D0D" opacity="1.000000" stroke="none" 
	d="
M1130.381836,1594.988281 
	C1130.881592,1594.818359 1131.753784,1594.653687 1132.807373,1594.736328 
	C1132.244019,1594.986816 1131.499146,1594.989990 1130.381836,1594.988281 
z"/>
<path fill="#730D0D" opacity="1.000000" stroke="none" 
	d="
M1196.338135,1594.989502 
	C1196.573120,1594.836304 1197.138916,1594.687256 1197.848877,1594.761719 
	C1197.551636,1594.988159 1197.110352,1594.990967 1196.338135,1594.989502 
z"/>
<path fill="#730D0D" opacity="1.000000" stroke="none" 
	d="
M1072.341553,1594.985840 
	C1072.575439,1594.831299 1073.138428,1594.683105 1073.844482,1594.757080 
	C1073.548584,1594.983521 1073.109741,1594.987793 1072.341553,1594.985840 
z"/>
<path fill="#730D0D" opacity="1.000000" stroke="none" 
	d="
M1419.338745,1594.987061 
	C1419.573364,1594.833130 1420.138428,1594.684570 1420.847534,1594.759033 
	C1420.550781,1594.985474 1420.109985,1594.989014 1419.338745,1594.987061 
z"/>
<path fill="#730D0D" opacity="1.000000" stroke="none" 
	d="
M1500.467285,469.448883 
	C1500.523682,469.415100 1500.410889,469.482666 1500.467285,469.448883 
z"/>
<path fill="#730D0D" opacity="1.000000" stroke="none" 
	d="
M752.253174,1594.984619 
	C752.277100,1594.871338 752.547913,1594.762207 752.906250,1594.817139 
	C752.993713,1594.981201 752.500000,1594.988892 752.253174,1594.984619 
z"/>
<path fill="#730D0D" opacity="1.000000" stroke="none" 
	d="
M809.254456,1594.984253 
	C809.278503,1594.870850 809.548157,1594.761841 809.904419,1594.816406 
	C809.991089,1594.980103 809.500000,1594.988525 809.254456,1594.984253 
z"/>
<path fill="#C35E5F" opacity="1.000000" stroke="none" 
	d="
M1481.953369,1587.685913 
	C1185.629028,1587.964478 889.355286,1587.979858 593.081482,1587.995117 
	C585.678955,1587.995483 578.276367,1587.995117 570.887634,1586.972046 
	C874.288574,1586.972046 1177.689575,1586.972046 1481.560791,1586.929688 
	C1482.021973,1587.065796 1482.012939,1587.244263 1481.953369,1587.685913 
z"/>
<path fill="#C35E5F" opacity="1.000000" stroke="none" 
	d="
M1586.289307,1480.664307 
	C1586.027466,1374.371704 1586.019165,1267.760742 1586.023560,1161.149658 
	C1586.031372,967.415344 1586.046875,773.681091 1586.282227,579.430786 
	C1586.673584,578.931763 1586.841919,578.948730 1587.010132,578.965759 
	C1586.996826,579.275269 1587.048584,579.573486 1587.256958,580.068848 
	C1587.215454,878.649597 1587.083130,1177.021973 1586.932861,1475.394409 
	C1586.932129,1477.044800 1586.682129,1478.695312 1586.289307,1480.664307 
z"/>
<path fill="#6C1616" opacity="1.000000" stroke="none" 
	d="
M1594.611084,981.328308 
	C1594.951904,989.837280 1595.076782,998.657288 1595.078857,1007.477234 
	C1595.115112,1162.175903 1595.136841,1316.874512 1595.157227,1471.573120 
	C1595.157593,1474.403687 1595.102905,1477.234131 1594.973022,1480.522705 
	C1594.579834,1479.231689 1594.031738,1477.482788 1594.031372,1475.733887 
	C1593.994019,1312.518188 1593.997559,1149.302490 1594.014038,986.086731 
	C1594.014160,984.604248 1594.225342,983.121765 1594.611084,981.328308 
z"/>
<path fill="#730D0D" opacity="1.000000" stroke="none" 
	d="
M1584.391602,1506.954712 
	C1584.789307,1506.711792 1585.184937,1506.713745 1585.578613,1506.743896 
	C1585.589600,1506.744751 1585.577148,1507.051514 1585.575562,1507.215698 
	C1585.180176,1507.211548 1584.784790,1507.207397 1584.391602,1506.954712 
z"/>
<path fill="#730D0D" opacity="1.000000" stroke="none" 
	d="
M1583.397705,1509.721313 
	C1583.558716,1509.848511 1583.582275,1510.068726 1583.605713,1510.288940 
	C1583.490601,1510.130737 1583.375488,1509.972534 1583.397705,1509.721313 
z"/>
<path fill="#730D0D" opacity="1.000000" stroke="none" 
	d="
M1587.533203,1500.551758 
	C1587.476318,1500.586060 1587.590088,1500.517578 1587.533203,1500.551758 
z"/>
<path fill="#730D0D" opacity="1.000000" stroke="none" 
	d="
M1586.533203,1502.551514 
	C1586.477051,1502.585327 1586.589478,1502.517700 1586.533203,1502.551514 
z"/>
<path fill="#FFFFFF" opacity="1.000000" stroke="none" 
	d="
M1596.658936,555.724976 
	C1596.644165,555.987488 1596.503784,556.131287 1596.363281,556.275024 
	C1596.419922,556.052124 1596.476440,555.829163 1596.658936,555.724976 
z"/>
<path fill="#C35E5F" opacity="1.000000" stroke="none" 
	d="
M463.902771,940.000000 
	C463.901855,1120.298340 463.901855,1300.096680 463.901855,1479.895020 
	C463.697693,1479.894897 463.493530,1479.894897 463.289368,1479.894897 
	C463.289368,1176.215576 463.289368,872.536255 463.289368,568.856934 
	C463.494141,568.856689 463.698944,568.856506 463.903717,568.856262 
	C463.903717,692.404175 463.903717,815.952087 463.902771,940.000000 
z"/>
<path fill="#6C1616" opacity="1.000000" stroke="none" 
	d="
M1566.989258,512.591309 
	C1566.506470,513.233093 1566.014893,513.506042 1565.209106,513.748718 
	C1564.807861,513.669067 1564.720825,513.619629 1564.633789,513.570190 
	C1564.754272,513.714294 1564.874756,513.858398 1564.995117,514.002502 
	C1564.995117,514.445801 1564.995117,514.889099 1564.995117,515.664917 
	C1564.390137,516.479309 1563.785156,516.961304 1562.890625,517.673889 
	C1562.576782,516.667358 1561.942261,515.737366 1562.187012,515.239929 
	C1563.979126,511.596680 1562.387085,509.447449 1559.275146,507.728790 
	C1556.580566,506.240723 1555.413696,503.923492 1556.021973,500.415649 
	C1558.987061,500.025055 1560.413330,501.083344 1561.324951,504.345490 
	C1562.142090,507.269592 1565.014648,509.619354 1566.989258,512.591309 
z"/>
<path fill="#6C1616" opacity="1.000000" stroke="none" 
	d="
M1543.000854,488.367767 
	C1543.328491,487.544708 1543.693237,486.670105 1544.000977,486.689758 
	C1546.613892,486.856567 1555.298828,495.308899 1555.998169,498.606018 
	C1551.670532,495.569611 1547.340942,492.150208 1543.000854,488.367767 
z"/>
<path fill="#6C1616" opacity="1.000000" stroke="none" 
	d="
M471.988342,1512.557129 
	C471.338135,1512.962524 470.162750,1513.188843 470.105499,1513.024780 
	C469.146240,1510.276733 468.326599,1507.480103 467.475922,1504.694214 
	C467.869232,1504.480591 468.262543,1504.266968 468.655853,1504.053345 
	C469.765076,1506.767700 470.874298,1509.482056 471.988342,1512.557129 
z"/>
<path fill="#6C1616" opacity="1.000000" stroke="none" 
	d="
M465.375549,1499.095215 
	C466.378906,1499.079956 467.753754,1499.133301 468.196594,1499.802856 
	C468.615051,1500.435547 468.054169,1501.715942 466.743195,1502.751709 
	C466.275482,1501.645386 465.807770,1500.539062 465.375549,1499.095215 
z"/>
<path fill="#730D0D" opacity="1.000000" stroke="none" 
	d="
M1523.799316,1572.795898 
	C1523.195435,1572.430542 1522.891846,1572.003418 1522.588135,1571.576172 
	C1523.036377,1571.461304 1523.484619,1571.346436 1523.932861,1571.231445 
	C1523.988403,1571.732300 1524.043945,1572.233154 1523.799316,1572.795898 
z"/>
<path fill="#6C1616" opacity="1.000000" stroke="none" 
	d="
M551.566650,470.424713 
	C551.889954,470.931732 551.962097,471.327942 552.034241,471.724182 
	C551.502869,471.543732 550.971497,471.363251 550.440125,471.182800 
	C550.731934,470.893188 551.023743,470.603546 551.566650,470.424713 
z"/>
<path fill="#730D0D" opacity="1.000000" stroke="none" 
	d="
M1583.995117,1490.995117 
	C1584.297729,1490.481567 1584.605347,1489.973022 1584.912842,1489.464355 
	C1585.122803,1489.647217 1585.332886,1489.830078 1585.542847,1490.012939 
	C1585.221436,1490.320557 1584.899902,1490.628296 1584.294189,1490.972900 
	C1584.009888,1491.009888 1584.000000,1491.000000 1583.995117,1490.995117 
z"/>
<path fill="#730D0D" opacity="1.000000" stroke="none" 
	d="
M1587.009888,578.625061 
	C1586.841919,578.948730 1586.673584,578.931763 1586.256104,578.963379 
	C1586.007202,578.052734 1586.007202,577.093384 1586.007202,576.134094 
	C1586.207031,576.109863 1586.406982,576.085571 1586.606812,576.061340 
	C1586.741089,576.802368 1586.875366,577.543335 1587.009888,578.625061 
z"/>
<path fill="#730D0D" opacity="1.000000" stroke="none" 
	d="
M1484.004883,1587.995117 
	C1484.517578,1588.296753 1485.025391,1588.603149 1485.533203,1588.909668 
	C1485.351318,1589.119141 1485.169312,1589.328613 1484.987427,1589.538086 
	C1484.680786,1589.217407 1484.374146,1588.896729 1484.028809,1588.292969 
	C1483.990234,1588.009766 1484.000000,1588.000000 1484.004883,1587.995117 
z"/>
<path fill="#730D0D" opacity="1.000000" stroke="none" 
	d="
M1571.605469,1515.533447 
	C1572.056030,1515.649780 1572.332275,1515.933472 1572.587280,1516.235352 
	C1572.593872,1516.243042 1572.366211,1516.448486 1572.247803,1516.561768 
	C1571.974731,1516.275635 1571.701660,1515.989502 1571.605469,1515.533447 
z"/>
<path fill="#6C1616" opacity="1.000000" stroke="none" 
	d="
M495.784790,1552.642456 
	C495.278442,1552.504761 494.696472,1552.116211 494.111908,1551.434937 
	C494.642609,1551.558716 495.175903,1551.975220 495.784790,1552.642456 
z"/>
<path fill="#730D0D" opacity="1.000000" stroke="none" 
	d="
M1576.928833,1517.958130 
	C1577.083496,1517.523315 1577.238281,1517.088379 1577.392944,1516.653564 
	C1577.426392,1517.033203 1577.459839,1517.412720 1577.258789,1517.910889 
	C1577.024170,1518.029541 1576.928833,1517.958130 1576.928833,1517.958130 
z"/>
<path fill="#6C1616" opacity="1.000000" stroke="none" 
	d="
M475.122192,1522.883667 
	C475.419189,1523.374634 475.716125,1523.865723 476.011414,1524.682617 
	C476.009705,1525.008545 475.945770,1525.087036 475.945770,1525.087036 
	C475.631531,1524.602783 475.317261,1524.118408 475.016968,1523.299561 
	C475.030884,1522.965088 475.122192,1522.883667 475.122192,1522.883667 
z"/>
<path fill="#730D0D" opacity="1.000000" stroke="none" 
	d="
M1574.603027,1522.279053 
	C1574.441528,1522.151489 1574.418091,1521.930298 1574.394653,1521.709106 
	C1574.510132,1521.867798 1574.625610,1522.026611 1574.603027,1522.279053 
z"/>
<path fill="#6C1616" opacity="1.000000" stroke="none" 
	d="
M474.981628,1523.001343 
	C474.811859,1522.572266 474.691376,1522.106934 474.570862,1521.641602 
	C474.722687,1521.899414 474.874481,1522.157227 475.074249,1522.649414 
	C475.122192,1522.883667 475.030884,1522.965088 474.981628,1523.001343 
z"/>
<path fill="#730D0D" opacity="1.000000" stroke="none" 
	d="
M1575.397217,1526.723267 
	C1575.558105,1526.850708 1575.581421,1527.070923 1575.604736,1527.291138 
	C1575.489746,1527.132812 1575.374634,1526.974365 1575.397217,1526.723267 
z"/>
<path fill="#6C1616" opacity="1.000000" stroke="none" 
	d="
M477.980774,1529.002686 
	C477.812256,1528.571167 477.692169,1528.103638 477.572083,1527.636108 
	C477.723206,1527.895752 477.874329,1528.155273 478.072327,1528.650513 
	C478.119263,1528.886108 478.029236,1528.966675 477.980774,1529.002686 
z"/>
<path fill="#6C1616" opacity="1.000000" stroke="none" 
	d="
M472.609344,1517.290039 
	C472.440002,1517.156982 472.414490,1516.925781 472.388947,1516.694702 
	C472.510345,1516.860474 472.631775,1517.026123 472.609344,1517.290039 
z"/>
<path fill="#730D0D" opacity="1.000000" stroke="none" 
	d="
M1577.068604,1518.069214 
	C1576.935547,1518.524902 1576.758179,1518.941040 1576.580811,1519.357056 
	C1576.563477,1518.981934 1576.546143,1518.606812 1576.728760,1518.094971 
	C1576.928833,1517.958130 1577.024170,1518.029541 1577.068604,1518.069214 
z"/>
<path fill="#6C1616" opacity="1.000000" stroke="none" 
	d="
M473.440063,1519.541016 
	C473.399078,1519.474976 473.481079,1519.607178 473.440063,1519.541016 
z"/>
<path fill="#730D0D" opacity="1.000000" stroke="none" 
	d="
M1555.997559,1546.002441 
	C1555.874146,1545.860229 1555.753174,1545.715576 1555.632202,1545.570923 
	C1555.719116,1545.619995 1555.806152,1545.669067 1555.948975,1545.856689 
	C1556.004883,1545.995117 1556.000000,1546.000000 1555.997559,1546.002441 
z"/>
<path fill="#6C1616" opacity="1.000000" stroke="none" 
	d="
M494.448303,503.534821 
	C494.413361,503.476990 494.483246,503.592651 494.448303,503.534821 
z"/>
<path fill="#730D0D" opacity="1.000000" stroke="none" 
	d="
M1575.450195,1524.532227 
	C1575.417114,1524.476807 1575.483398,1524.587769 1575.450195,1524.532227 
z"/>
<path fill="#6C1616" opacity="1.000000" stroke="none" 
	d="
M476.048920,1524.976562 
	C476.197357,1525.125488 476.306610,1525.306152 476.415833,1525.486816 
	C476.308319,1525.448364 476.200775,1525.409790 476.019531,1525.229126 
	C475.945770,1525.087036 476.009705,1525.008545 476.048920,1524.976562 
z"/>
<path fill="#730D0D" opacity="1.000000" stroke="none" 
	d="
M1581.945435,1495.861816 
	C1581.878418,1495.858276 1581.756836,1495.716431 1581.635254,1495.574585 
	C1581.720459,1495.624268 1581.805664,1495.673828 1581.945435,1495.861816 
z"/>
<path fill="#730D0D" opacity="1.000000" stroke="none" 
	d="
M1564.997559,514.001221 
	C1564.874756,513.858398 1564.754272,513.714294 1564.633789,513.570190 
	C1564.720825,513.619629 1564.807861,513.669067 1564.949951,513.857544 
	C1565.004883,513.996704 1565.000000,514.000000 1564.997559,514.001221 
z"/>
</svg>