<svg version="1.1" id="Layer_1" xmlns="http://www.w3.org/2000/svg" xmlns:xlink="http://www.w3.org/1999/xlink" x="0px" y="0px"
	 width="100%" viewBox="0 0 1024 1024" enable-background="new 0 0 1024 1024" xml:space="preserve">
<path fill="#7D0A0A" opacity="1.000000" stroke="none" 
	d="
M583.222046,579.092163 
	C566.670166,618.597656 550.255249,657.745300 533.849426,696.896790 
	C531.252136,703.095032 529.675720,703.695007 523.670898,700.662354 
	C513.561584,695.556702 503.463226,690.429199 493.337860,685.355652 
	C490.917480,684.142822 488.754028,682.695374 487.126740,680.473267 
	C460.759857,644.467407 433.271545,609.232178 410.902924,570.465271 
	C399.856781,551.321289 390.924805,531.328125 388.090118,509.108093 
	C385.640656,489.908142 387.069183,470.915161 391.723206,452.195465 
	C402.969757,406.958527 426.407715,369.891846 465.831848,344.053040 
	C486.461609,330.532196 509.174072,323.103546 534.163208,323.664551 
	C545.157532,323.911377 555.676147,326.214539 565.474976,331.114105 
	C576.791626,336.772644 588.047485,342.590820 599.046814,348.837830 
	C620.568665,361.061005 629.903564,380.949493 633.366577,404.478241 
	C637.202393,430.538910 630.749329,455.045532 622.394714,479.264099 
	C610.770142,512.961731 596.853882,545.766907 583.222046,579.092163 
M429.219269,513.445557 
	C428.951141,533.279175 434.986023,551.508850 443.850677,568.874939 
	C464.412659,609.156250 491.699402,644.936829 519.237061,680.525330 
	C521.742554,683.763306 523.821411,687.431519 527.235596,690.021362 
	C529.346191,688.271545 529.847778,685.929504 530.733276,683.836121 
	C540.334351,661.137512 549.931580,638.437317 559.474609,615.714233 
	C579.523987,567.974426 600.179260,520.473328 616.868225,471.398682 
	C624.378235,449.315155 629.698914,426.905853 625.663330,403.336060 
	C622.358948,384.036774 614.533325,367.246765 597.148315,356.742737 
	C581.850403,347.499756 564.952942,346.621765 547.831604,349.851898 
	C524.653564,354.224670 504.368927,364.939911 487.165192,380.774902 
	C448.756256,416.128021 429.451630,460.169983 429.219269,513.445557 
M433.649780,592.881897 
	C451.510437,620.240356 471.302063,646.217834 490.533905,672.598450 
	C496.205627,680.378418 505.074677,682.178589 512.964966,686.040100 
	C511.605164,683.384705 509.890625,681.174622 508.195465,678.949829 
	C484.764526,648.197266 462.047485,616.980652 442.690735,583.406616 
	C424.261810,551.441895 417.324615,517.623779 423.846375,481.108887 
	C429.963409,446.859985 443.829712,416.195251 466.776947,390.104553 
	C488.553680,365.344727 514.956116,347.698700 548.260498,342.269348 
	C554.150330,341.309204 560.137695,340.947510 566.587524,340.254974 
	C556.353455,334.490356 545.146606,331.568481 534.635071,331.265289 
	C508.937073,330.524078 486.183929,339.086456 465.526978,353.558014 
	C432.977173,376.361328 412.587341,407.911652 401.345154,445.595642 
	C392.675781,474.655487 391.377869,503.924927 401.488831,532.944824 
	C408.943878,554.341858 421.080017,573.344238 433.649780,592.881897 
z"/>
<path fill="#7D0A0A" opacity="1.000000" stroke="none" 
	d="
M569.531982,403.327667 
	C580.123657,410.796387 584.585938,421.384430 586.131531,433.303192 
	C590.517151,467.121613 566.667542,506.410431 534.658325,518.527466 
	C508.576324,528.400757 485.089447,514.231689 482.815460,486.442413 
	C479.902924,450.849884 494.882507,423.645355 524.706787,404.963165 
	C538.650452,396.228668 553.996094,394.101837 569.531982,403.327667 
M548.433411,501.934998 
	C560.087402,492.473663 568.476929,480.609467 573.873230,466.679535 
	C579.177368,452.987640 581.087891,438.936096 576.236633,424.703674 
	C571.223145,409.995087 556.856018,402.280060 542.546082,406.001495 
	C539.554199,406.779541 538.239319,407.770721 539.111877,411.099823 
	C539.863342,413.967285 540.188477,417.005676 540.269592,419.980286 
	C540.910889,443.488861 532.127502,463.098114 515.550964,479.500977 
	C508.984436,485.998779 501.479034,491.014435 492.900055,494.052704 
	C495.114410,504.416534 504.509186,512.782288 514.243164,513.819641 
	C527.258240,515.206665 537.941833,509.928864 548.433411,501.934998 
M532.711121,423.509735 
	C532.682312,419.252930 532.865417,414.959076 530.828125,410.988983 
	C503.772339,421.812225 484.063782,465.606049 490.905884,485.694366 
	C510.088715,483.182312 532.414124,450.468262 532.711121,423.509735 
z"/>
</svg>